<svg width="32" height="32" viewBox="0 0 32 32" fill="none" xmlns="http://www.w3.org/2000/svg">
<path d="M7.98764 6.572C8.1749 6.7595 8.28009 7.01367 8.28009 7.27867C8.28009 7.54367 8.1749 7.79783 7.98764 7.98533C6.9352 9.03774 6.10036 10.2871 5.53079 11.6622C4.96121 13.0372 4.66806 14.511 4.66806 15.9993C4.66806 17.4877 4.96121 18.9614 5.53079 20.3365C6.10036 21.7115 6.9352 22.9609 7.98764 24.0133C8.16971 24.202 8.27038 24.4547 8.26798 24.7169C8.26558 24.9791 8.16029 25.2298 7.9748 25.4152C7.7893 25.6005 7.53844 25.7055 7.27624 25.7077C7.01404 25.7098 6.76148 25.6089 6.57297 25.4267C1.3663 20.22 1.3663 11.7787 6.57297 6.572C6.76047 6.38473 7.01464 6.27955 7.27964 6.27955C7.54464 6.27955 7.80014 6.38473 7.98764 6.572ZM25.4276 6.572C30.6343 11.7787 30.6343 20.2213 25.4276 25.428C25.2381 25.6046 24.9873 25.7008 24.7283 25.6962C24.4692 25.6917 24.222 25.5867 24.0388 25.4035C23.8556 25.2203 23.7506 24.9731 23.7461 24.714C23.7415 24.455 23.8377 24.2042 24.0143 24.0147C25.0669 22.9622 25.9019 21.7128 26.4716 20.3376C27.0413 18.9624 27.3345 17.4885 27.3345 16C27.3345 14.5115 27.0413 13.0376 26.4716 11.6624C25.9019 10.2872 25.0669 9.03776 24.0143 7.98533C23.9161 7.89378 23.8373 7.78338 23.7826 7.66072C23.7279 7.53805 23.6985 7.40564 23.6962 7.27136C23.6938 7.13709 23.7185 7.00372 23.7688 6.8792C23.8191 6.75469 23.894 6.64158 23.9889 6.54662C24.0839 6.45166 24.197 6.3768 24.3215 6.3265C24.446 6.27621 24.5794 6.25151 24.7137 6.25388C24.8479 6.25625 24.9804 6.28564 25.103 6.34029C25.2257 6.39495 25.3361 6.47375 25.4276 6.572ZM11.7583 10.3427C11.9456 10.5302 12.0508 10.7843 12.0508 11.0493C12.0508 11.3143 11.9456 11.5685 11.7583 11.756C11.2009 12.3132 10.7588 12.9747 10.4572 13.7028C10.1555 14.4309 10.0003 15.2112 10.0003 15.9993C10.0003 16.7874 10.1555 17.5678 10.4572 18.2959C10.7588 19.024 11.2009 19.6855 11.7583 20.2427C11.9349 20.4322 12.0311 20.683 12.0265 20.942C12.022 21.2011 11.917 21.4483 11.7338 21.6315C11.5506 21.8147 11.3034 21.9197 11.0443 21.9242C10.7853 21.9288 10.5345 21.8326 10.345 21.656C8.84479 20.1557 8.00201 18.121 8.00201 15.9993C8.00201 13.8777 8.84479 11.8429 10.345 10.3427C10.5325 10.1554 10.7866 10.0502 11.0516 10.0502C11.3166 10.0502 11.5708 10.1554 11.7583 10.3427ZM21.6583 10.3427C23.1585 11.8429 24.0013 13.8777 24.0013 15.9993C24.0013 18.121 23.1585 20.1557 21.6583 21.656C21.5661 21.7516 21.4558 21.8278 21.3338 21.8803C21.2118 21.9327 21.0806 21.9604 20.9478 21.9616C20.8151 21.9628 20.6834 21.9376 20.5605 21.8873C20.4375 21.8371 20.3259 21.7629 20.2319 21.6691C20.138 21.5752 20.0637 21.4636 20.0133 21.3407C19.963 21.2179 19.9376 21.0862 19.9387 20.9534C19.9398 20.8206 19.9673 20.6894 20.0197 20.5674C20.072 20.4453 20.1482 20.335 20.2436 20.2427C20.8008 19.6855 21.2428 19.0241 21.5443 18.2961C21.8458 17.5682 22.001 16.7879 22.001 16C22.001 15.2121 21.8458 14.4318 21.5443 13.7039C21.2428 12.9759 20.8008 12.3145 20.2436 11.7573C20.067 11.5678 19.9708 11.317 19.9754 11.058C19.98 10.7989 20.0849 10.5517 20.2681 10.3685C20.4514 10.1853 20.6985 10.0803 20.9576 10.0758C21.2167 10.0712 21.4674 10.1674 21.657 10.344M16.001 14C16.5314 14 17.0401 14.2107 17.4152 14.5858C17.7903 14.9609 18.001 15.4696 18.001 16C18.001 16.5304 17.7903 17.0391 17.4152 17.4142C17.0401 17.7893 16.5314 18 16.001 18C15.4705 18 14.9618 17.7893 14.5868 17.4142C14.2117 17.0391 14.001 16.5304 14.001 16C14.001 15.4696 14.2117 14.9609 14.5868 14.5858C14.9618 14.2107 15.4705 14 16.001 14Z" fill="#CE9DF3"/>
</svg>
