<svg width="32" height="33" viewBox="0 0 32 33" fill="none" xmlns="http://www.w3.org/2000/svg">
<path d="M16 20.5C18.2091 20.5 20 18.7091 20 16.5C20 14.2909 18.2091 12.5 16 12.5C13.7909 12.5 12 14.2909 12 16.5C12 18.7091 13.7909 20.5 16 20.5Z" stroke="#CE9DF3" stroke-width="1.5"/>
<path d="M18.3539 3.36935C17.8646 3.16669 17.2433 3.16669 16.0006 3.16669C14.7579 3.16669 14.1366 3.16669 13.6473 3.36935C13.3235 3.50337 13.0293 3.69988 12.7816 3.94765C12.5338 4.19542 12.3373 4.48959 12.2033 4.81335C12.0806 5.11069 12.0313 5.45869 12.0126 5.96402C12.0039 6.32926 11.9027 6.68633 11.7185 7.00183C11.5343 7.31732 11.2731 7.58094 10.9593 7.76802C10.6403 7.94638 10.2814 8.04092 9.91598 8.04278C9.55057 8.04465 9.19066 7.95378 8.86993 7.77869C8.42193 7.54135 8.09793 7.41069 7.7766 7.36802C7.07569 7.27585 6.36687 7.46576 5.80593 7.89602C5.38727 8.22002 5.07527 8.75735 4.45393 9.83335C3.8326 10.9094 3.5206 11.4467 3.4526 11.9734C3.40678 12.3206 3.42983 12.6735 3.52042 13.0119C3.61102 13.3502 3.76739 13.6674 3.9806 13.9454C4.17793 14.2014 4.45393 14.416 4.88193 14.6854C5.5126 15.0814 5.91793 15.756 5.91793 16.5C5.91793 17.244 5.5126 17.9187 4.88193 18.3134C4.45393 18.584 4.1766 18.7987 3.9806 19.0547C3.76739 19.3326 3.61102 19.6498 3.52042 19.9882C3.42983 20.3265 3.40678 20.6794 3.4526 21.0267C3.52193 21.552 3.8326 22.0907 4.4526 23.1667C5.07527 24.2427 5.38593 24.78 5.80593 25.104C6.08385 25.3172 6.40105 25.4736 6.73941 25.5642C7.07777 25.6548 7.43066 25.6778 7.77793 25.632C8.09793 25.5894 8.42193 25.4587 8.86993 25.2214C9.19066 25.0463 9.55057 24.9554 9.91598 24.9573C10.2814 24.9591 10.6403 25.0537 10.9593 25.232C11.6033 25.6054 11.9859 26.292 12.0126 27.036C12.0313 27.5427 12.0793 27.8894 12.2033 28.1867C12.3373 28.5104 12.5338 28.8046 12.7816 29.0524C13.0293 29.3002 13.3235 29.4967 13.6473 29.6307C14.1366 29.8334 14.7579 29.8334 16.0006 29.8334C17.2433 29.8334 17.8646 29.8334 18.3539 29.6307C18.6777 29.4967 18.9719 29.3002 19.2196 29.0524C19.4674 28.8046 19.6639 28.5104 19.7979 28.1867C19.9206 27.8894 19.9699 27.5427 19.9886 27.036C20.0153 26.292 20.3979 25.604 21.0419 25.232C21.3609 25.0537 21.7198 24.9591 22.0852 24.9573C22.4506 24.9554 22.8105 25.0463 23.1313 25.2214C23.5793 25.4587 23.9033 25.5894 24.2233 25.632C24.5705 25.6778 24.9234 25.6548 25.2618 25.5642C25.6002 25.4736 25.9174 25.3172 26.1953 25.104C26.6153 24.7814 26.9259 24.2427 27.5473 23.1667C28.1686 22.0907 28.4806 21.5534 28.5486 21.0267C28.5944 20.6794 28.5714 20.3265 28.4808 19.9882C28.3902 19.6498 28.2338 19.3326 28.0206 19.0547C27.8233 18.7987 27.5473 18.584 27.1193 18.3147C26.8072 18.1246 26.5484 17.8583 26.3672 17.541C26.186 17.2236 26.0883 16.8654 26.0833 16.5C26.0833 15.756 26.4886 15.0814 27.1193 14.6867C27.5473 14.416 27.8246 14.2014 28.0206 13.9454C28.2338 13.6674 28.3902 13.3502 28.4808 13.0119C28.5714 12.6735 28.5944 12.3206 28.5486 11.9734C28.4793 11.448 28.1686 10.9094 27.5486 9.83335C26.9259 8.75735 26.6153 8.22002 26.1953 7.89602C25.9174 7.68281 25.6002 7.52644 25.2618 7.43584C24.9234 7.34525 24.5705 7.3222 24.2233 7.36802C23.9033 7.41069 23.5793 7.54135 23.1299 7.77869C22.8094 7.95354 22.4497 8.04428 22.0846 8.04241C21.7194 8.04055 21.3607 7.94614 21.0419 7.76802C20.7281 7.58094 20.4669 7.31732 20.2827 7.00183C20.0985 6.68633 19.9973 6.32926 19.9886 5.96402C19.9699 5.45735 19.9219 5.11069 19.7979 4.81335C19.6639 4.48959 19.4674 4.19542 19.2196 3.94765C18.9719 3.69988 18.6777 3.50337 18.3539 3.36935Z" stroke="#CE9DF3" stroke-width="1.5"/>
</svg>
