<svg width="32" height="32" viewBox="0 0 32 32" fill="none" xmlns="http://www.w3.org/2000/svg">
<path d="M14.668 31.4533V26.6533C7.98797 26.3067 2.66797 20.76 2.66797 14C2.66797 7.01334 8.34797 1.33334 15.3346 1.33334C22.3213 1.33334 28.0013 7.01334 28.0013 14C28.0013 20.6 23.4146 27.24 16.5746 30.5333L14.668 31.4533ZM15.3346 4C9.81464 4 5.33464 8.48 5.33464 14C5.33464 19.52 9.81464 24 15.3346 24H17.3346V27.0667C22.188 24 25.3346 18.96 25.3346 14C25.3346 8.48 20.8546 4 15.3346 4ZM14.0013 19.3333H16.668V22H14.0013V19.3333ZM16.668 17.3333H14.0013C14.0013 13 18.0013 13.3333 18.0013 10.6667C18.0013 9.2 16.8013 8 15.3346 8C13.868 8 12.668 9.2 12.668 10.6667H10.0013C10.0013 7.72 12.388 5.33334 15.3346 5.33334C18.2813 5.33334 20.668 7.72 20.668 10.6667C20.668 14 16.668 14.3333 16.668 17.3333Z" fill="#CE9DF3"/>
</svg>
