<svg width="24" height="29" viewBox="0 0 24 29" fill="none" xmlns="http://www.w3.org/2000/svg">
<path d="M24 3.82297V25.1712C24 25.9051 23.4054 26.4944 22.6768 26.4944H16.5589V17.2051H19.6768L20.1429 13.5837H16.5536V11.2694C16.5536 10.2194 16.8429 9.5069 18.3482 9.5069H20.2661V6.26583C19.9339 6.22297 18.7982 6.12118 17.4696 6.12118C14.7054 6.12118 12.8089 7.80868 12.8089 10.9105V13.5837H9.68036V17.2051H12.8089V26.4998H1.32321C0.594643 26.4998 0 25.9051 0 25.1765V3.82297C0 3.0944 0.594643 2.49976 1.32321 2.49976H22.6714C23.4054 2.49976 24 3.0944 24 3.82297Z" fill="white"/>
</svg>
