<svg width="21" height="21" viewBox="0 0 21 21" fill="none" xmlns="http://www.w3.org/2000/svg">
<g clip-path="url(#clip0_345_4866)">
<path d="M9.98905 2.45249C12.6621 2.45249 12.9787 2.46266 14.0343 2.51082C15.0104 2.55537 15.5404 2.71846 15.8932 2.85552C16.3605 3.03712 16.694 3.25409 17.0443 3.60439C17.3946 3.95468 17.6116 4.28821 17.7931 4.75545C17.9302 5.10825 18.0933 5.63832 18.1379 6.61433C18.186 7.66999 18.1962 7.98658 18.1962 10.6596C18.1962 13.3327 18.186 13.6493 18.1379 14.7049C18.0933 15.6809 17.9302 16.211 17.7931 16.5638C17.6116 17.031 17.3946 17.3646 17.0443 17.7149C16.694 18.0652 16.3605 18.2821 15.8932 18.4637C15.5404 18.6008 15.0104 18.7639 14.0343 18.8084C12.9789 18.8566 12.6623 18.8668 9.98905 18.8668C7.31585 18.8668 6.99925 18.8566 5.9438 18.8084C4.96775 18.7639 4.43768 18.6008 4.08492 18.4637C3.61763 18.2821 3.28411 18.0652 2.93381 17.7149C2.58352 17.3646 2.36655 17.031 2.18498 16.5638C2.04789 16.211 1.8848 15.6809 1.84025 14.7049C1.79209 13.6493 1.78192 13.3327 1.78192 10.6596C1.78192 7.98658 1.79209 7.66999 1.84025 6.61437C1.8848 5.63832 2.04789 5.10825 2.18498 4.75545C2.36655 4.28821 2.58352 3.95468 2.93381 3.60439C3.28411 3.25409 3.61763 3.03712 4.08492 2.85552C4.43768 2.71846 4.96775 2.55537 5.94376 2.51082C6.99941 2.46266 7.31601 2.45249 9.98905 2.45249ZM9.98905 0.648682C7.27023 0.648682 6.92935 0.660206 5.86158 0.708925C4.796 0.757565 4.06831 0.926771 3.4315 1.17426C2.77319 1.4301 2.21491 1.7724 1.65837 2.32894C1.10183 2.88548 0.759526 3.44376 0.50369 4.10207C0.256199 4.73888 0.086993 5.46657 0.0383531 6.53216C-0.0103662 7.59989 -0.0218506 7.9408 -0.0218506 10.6596C-0.0218506 13.3785 -0.0103662 13.7194 0.0383531 14.7871C0.086993 15.8527 0.256199 16.5804 0.50369 17.2172C0.759526 17.8755 1.10183 18.4338 1.65837 18.9903C2.21491 19.5468 2.77319 19.8892 3.4315 20.145C4.06831 20.3925 4.796 20.5617 5.86158 20.6103C6.92935 20.659 7.27023 20.6705 9.98905 20.6705C12.7079 20.6705 13.0488 20.659 14.1165 20.6103C15.1821 20.5617 15.9098 20.3925 16.5466 20.145C17.2049 19.8892 17.7632 19.5468 18.3197 18.9903C18.8763 18.4338 19.2186 17.8755 19.4744 17.2172C19.7219 16.5804 19.8911 15.8527 19.9398 14.7871C19.9885 13.7194 20 13.3785 20 10.6596C20 7.9408 19.9885 7.59989 19.9398 6.53216C19.8911 5.46657 19.7219 4.73888 19.4744 4.10207C19.2186 3.44376 18.8763 2.88548 18.3197 2.32894C17.7632 1.7724 17.2049 1.4301 16.5466 1.17426C15.9098 0.926771 15.1821 0.757565 14.1165 0.708925C13.0488 0.660206 12.7079 0.648682 9.98905 0.648682ZM9.98905 5.51887C7.1499 5.51887 4.84829 7.82048 4.84829 10.6596C4.84829 13.4988 7.1499 15.8004 9.98905 15.8004C12.8282 15.8004 15.1298 13.4988 15.1298 10.6596C15.1298 7.82048 12.8282 5.51887 9.98905 5.51887ZM9.98905 13.9966C8.14611 13.9966 6.65206 12.5026 6.65206 10.6596C6.65206 8.81668 8.14611 7.32263 9.98905 7.32263C11.832 7.32263 13.326 8.81668 13.326 10.6596C13.326 12.5026 11.832 13.9966 9.98905 13.9966ZM16.5342 5.31576C16.5342 5.97923 15.9964 6.51709 15.3329 6.51709C14.6694 6.51709 14.1316 5.97923 14.1316 5.31576C14.1316 4.65229 14.6694 4.11447 15.3329 4.11447C15.9964 4.11447 16.5342 4.65229 16.5342 5.31576Z" fill="white"/>
</g>
<defs>
<clipPath id="clip0_345_4866">
<rect width="20.0219" height="20.0219" fill="white" transform="translate(0 0.170654)"/>
</clipPath>
</defs>
</svg>
