<svg width="24" height="25" viewBox="0 0 24 25" fill="none" xmlns="http://www.w3.org/2000/svg">
<g clip-path="url(#clip0_345_4804)">
<path d="M10.5256 20.9995C6.14531 20.9189 4.64924 20.8463 3.72966 20.6569C3.10751 20.531 2.56686 20.2515 2.17044 19.8461C1.86405 19.5393 1.6204 19.0712 1.43136 18.4217C1.26921 17.8807 1.20606 17.4305 1.11602 16.3308C0.97819 13.849 0.945333 11.82 1.11602 9.55284C1.25684 8.30086 1.32511 6.8146 2.26047 5.94751C2.70213 5.5417 3.21589 5.28055 3.79282 5.17259C4.69404 5.00148 8.53364 4.86621 12.5085 4.86621C16.4744 4.86621 20.3226 5.00148 21.2246 5.17259C21.9454 5.30786 22.6213 5.71324 23.0181 6.23597C23.8716 7.57842 23.8865 9.24774 23.9731 10.5535C24.009 11.1756 24.009 14.7084 23.9731 15.3306C23.8383 17.3942 23.7299 18.1243 23.4235 18.8813C23.234 19.3592 23.0723 19.6114 22.7924 19.8909C22.3534 20.321 21.7937 20.6071 21.1879 20.7111C17.3974 20.9961 14.1787 21.058 10.5256 20.9995ZM16.3302 12.7076C14.2214 11.5806 12.2021 10.5356 10.1381 9.45385V15.9254C12.3101 14.7447 14.5999 13.663 16.3391 12.6986L16.3302 12.7076Z" fill="white"/>
</g>
<defs>
<clipPath id="clip0_345_4804">
<rect width="23" height="16" fill="white" transform="translate(1 5)"/>
</clipPath>
</defs>
</svg>
