<svg width="24" height="24" viewBox="0 0 24 24" fill="none" xmlns="http://www.w3.org/2000/svg">
<g clip-path="url(#clip0_555_5724)">
<path d="M18.6083 6.31455V17.9988C18.6083 18.4005 18.2828 18.723 17.8841 18.723H14.5357V13.6388H16.2421L16.4972 11.6568H14.5327V10.3901C14.5327 9.81544 14.6911 9.42547 15.515 9.42547H16.5647V7.65157C16.3829 7.62812 15.7613 7.57241 15.0341 7.57241C13.5212 7.57241 12.4832 8.49601 12.4832 10.1937V11.6568H10.7709V13.6388H12.4832V18.726H6.19688C5.79812 18.726 5.47266 18.4005 5.47266 18.0018V6.31455C5.47266 5.91579 5.79812 5.59033 6.19688 5.59033H17.8812C18.2828 5.59033 18.6083 5.91579 18.6083 6.31455Z" fill="white"/>
</g>
<defs>
<clipPath id="clip0_555_5724">
<rect width="13.1356" height="13.1356" fill="white" transform="translate(5.47266 5.47314)"/>
</clipPath>
</defs>
</svg>
