<svg width="24" height="24" viewBox="0 0 24 24" fill="none" xmlns="http://www.w3.org/2000/svg">
<g clip-path="url(#clip0_555_5727)">
<path d="M12.0287 6.97004C13.7824 6.97004 13.9901 6.97671 14.6827 7.00831C15.3231 7.03753 15.6708 7.14453 15.9023 7.23445C16.2088 7.35359 16.4276 7.49594 16.6574 7.72576C16.8873 7.95557 17.0296 8.17439 17.1487 8.48093C17.2387 8.71239 17.3457 9.06015 17.3749 9.70048C17.4065 10.3931 17.4132 10.6008 17.4132 12.3545C17.4132 14.1082 17.4065 14.3159 17.3749 15.0084C17.3457 15.6488 17.2387 15.9965 17.1487 16.228C17.0296 16.5345 16.8873 16.7533 16.6574 16.9832C16.4276 17.213 16.2088 17.3553 15.9023 17.4744C15.6708 17.5644 15.3231 17.6714 14.6827 17.7006C13.9903 17.7322 13.7825 17.7389 12.0287 17.7389C10.275 17.7389 10.0672 17.7322 9.3748 17.7006C8.73444 17.6714 8.38668 17.5644 8.15525 17.4744C7.84868 17.3553 7.62986 17.213 7.40005 16.9832C7.17023 16.7533 7.02788 16.5345 6.90877 16.228C6.81882 15.9965 6.71182 15.6488 6.6826 15.0084C6.651 14.3159 6.64433 14.1082 6.64433 12.3545C6.64433 10.6008 6.651 10.3931 6.6826 9.70051C6.71182 9.06015 6.81882 8.71239 6.90877 8.48093C7.02788 8.17439 7.17023 7.95557 7.40005 7.72576C7.62986 7.49594 7.84868 7.35359 8.15525 7.23445C8.38668 7.14453 8.73444 7.03753 9.37477 7.00831C10.0673 6.97671 10.2751 6.97004 12.0287 6.97004ZM12.0287 5.78662C10.245 5.78662 10.0214 5.79418 9.32086 5.82614C8.62176 5.85806 8.14435 5.96907 7.72656 6.13144C7.29467 6.29928 6.9284 6.52386 6.56327 6.88898C6.19815 7.25411 5.97357 7.62038 5.80573 8.05227C5.64336 8.47006 5.53235 8.94747 5.50044 9.64657C5.46847 10.3471 5.46094 10.5707 5.46094 12.3545C5.46094 14.1382 5.46847 14.3618 5.50044 15.0623C5.53235 15.7614 5.64336 16.2389 5.80573 16.6566C5.97357 17.0885 6.19815 17.4548 6.56327 17.8199C6.9284 18.1851 7.29467 18.4096 7.72656 18.5775C8.14435 18.7398 8.62176 18.8509 9.32086 18.8828C10.0214 18.9147 10.245 18.9223 12.0287 18.9223C13.8125 18.9223 14.0361 18.9147 14.7366 18.8828C15.4357 18.8509 15.9131 18.7398 16.3309 18.5775C16.7628 18.4096 17.1291 18.1851 17.4942 17.8199C17.8593 17.4548 18.0839 17.0885 18.2518 16.6566C18.4141 16.2389 18.5251 15.7614 18.5571 15.0623C18.589 14.3618 18.5966 14.1382 18.5966 12.3545C18.5966 10.5707 18.589 10.3471 18.5571 9.64657C18.5251 8.94747 18.4141 8.47006 18.2518 8.05227C18.0839 7.62038 17.8593 7.25411 17.4942 6.88898C17.1291 6.52386 16.7628 6.29928 16.3309 6.13144C15.9131 5.96907 15.4357 5.85806 14.7366 5.82614C14.0361 5.79418 13.8125 5.78662 12.0287 5.78662ZM12.0287 8.98178C10.1661 8.98178 8.65607 10.4918 8.65607 12.3545C8.65607 14.2171 10.1661 15.7271 12.0287 15.7271C13.8914 15.7271 15.4014 14.2171 15.4014 12.3545C15.4014 10.4918 13.8914 8.98178 12.0287 8.98178ZM12.0287 14.5437C10.8197 14.5437 9.83946 13.5636 9.83946 12.3545C9.83946 11.1454 10.8197 10.1652 12.0287 10.1652C13.2378 10.1652 14.218 11.1454 14.218 12.3545C14.218 13.5636 13.2378 14.5437 12.0287 14.5437ZM16.3228 8.84853C16.3228 9.28381 15.97 9.63668 15.5347 9.63668C15.0994 9.63668 14.7465 9.28381 14.7465 8.84853C14.7465 8.41325 15.0994 8.0604 15.5347 8.0604C15.97 8.0604 16.3228 8.41325 16.3228 8.84853Z" fill="white"/>
</g>
<defs>
<clipPath id="clip0_555_5727">
<rect width="13.1356" height="13.1356" fill="white" transform="translate(5.47266 5.47314)"/>
</clipPath>
</defs>
</svg>
