<svg width="24" height="24" viewBox="0 0 24 24" fill="none" xmlns="http://www.w3.org/2000/svg">
<g clip-path="url(#clip0_555_5731)">
<path d="M5.47266 6.41399C5.47266 5.89431 5.90449 5.47314 6.43731 5.47314H17.6437C18.1765 5.47314 18.6083 5.89431 18.6083 6.41399V17.668C18.6083 18.1876 18.1765 18.6088 17.6437 18.6088H6.43731C5.90449 18.6088 5.47266 18.1876 5.47266 17.668V6.41399ZM9.53075 16.4693V10.5378H7.55958V16.4693H9.53075ZM8.54558 9.72745C9.23274 9.72745 9.66046 9.27263 9.66046 8.70287C9.64815 8.1208 9.23356 7.67829 8.55871 7.67829C7.88387 7.67829 7.443 8.12162 7.443 8.70287C7.443 9.27263 7.87073 9.72745 8.53244 9.72745H8.54558ZM12.5749 16.4693V13.1567C12.5749 12.9793 12.5881 12.802 12.6406 12.6756C12.7826 12.3217 13.1069 11.9548 13.6521 11.9548C14.3655 11.9548 14.6504 12.4983 14.6504 13.2962V16.4693H16.6215V13.0672C16.6215 11.2446 15.6495 10.3974 14.3524 10.3974C13.3064 10.3974 12.8376 10.9721 12.5749 11.3768V11.3973H12.5618L12.5749 11.3768V10.5378H10.6046C10.6292 11.0944 10.6046 16.4693 10.6046 16.4693H12.5749Z" fill="white"/>
</g>
<defs>
<clipPath id="clip0_555_5731">
<rect width="13.1356" height="13.1356" fill="white" transform="translate(5.47266 5.47314)"/>
</clipPath>
</defs>
</svg>
