<svg width="24" height="24" viewBox="0 0 24 24" fill="none" xmlns="http://www.w3.org/2000/svg">
<path d="M12.0003 1.99966C12.2277 1.99966 12.4457 2.08997 12.6065 2.25072C12.7672 2.41148 12.8575 2.6295 12.8575 2.85684C12.8575 3.08417 12.7672 3.3022 12.6065 3.46295C12.4457 3.6237 12.2277 3.71401 12.0003 3.71401C9.80276 3.71401 7.69519 4.587 6.14126 6.14092C4.58733 7.69485 3.71435 9.80243 3.71435 12C3.71435 14.1976 4.58733 16.3052 6.14126 17.8591C7.69519 19.413 9.80276 20.286 12.0003 20.286C12.2277 20.286 12.4457 20.3763 12.6065 20.5371C12.7672 20.6978 12.8575 20.9159 12.8575 21.1432C12.8575 21.3705 12.7672 21.5885 12.6065 21.7493C12.4457 21.9101 12.2277 22.0004 12.0003 22.0004C9.34809 22.0004 6.80446 20.9468 4.92903 19.0713C3.05361 17.1959 2 14.6523 2 12C2 9.34775 3.05361 6.80413 4.92903 4.9287C6.80446 3.05327 9.34809 1.99966 12.0003 1.99966Z" fill="#A8A8A8"/>
<path d="M17.1111 9.17703C16.9597 9.01454 16.8773 8.79962 16.8812 8.57756C16.8851 8.35549 16.975 8.14361 17.1321 7.98657C17.2891 7.82952 17.501 7.73956 17.7231 7.73564C17.9452 7.73172 18.1601 7.81415 18.3226 7.96556L21.7513 11.3943C21.9118 11.555 22.0019 11.7728 22.0019 12C22.0019 12.2271 21.9118 12.445 21.7513 12.6057L18.3226 16.0344C18.2441 16.1186 18.1495 16.1862 18.0443 16.233C17.9392 16.2799 17.8257 16.3051 17.7106 16.3071C17.5955 16.3091 17.4812 16.288 17.3744 16.2448C17.2677 16.2017 17.1707 16.1376 17.0893 16.0562C17.0079 15.9748 16.9438 15.8778 16.9007 15.7711C16.8575 15.6644 16.8364 15.55 16.8384 15.4349C16.8404 15.3198 16.8656 15.2063 16.9125 15.1012C16.9593 14.996 17.0269 14.9014 17.1111 14.8229L19.0769 12.8572H9.71655C9.48921 12.8572 9.27119 12.7668 9.11044 12.6061C8.94968 12.4453 8.85938 12.2273 8.85938 12C8.85938 11.7727 8.94968 11.5546 9.11044 11.3939C9.27119 11.2331 9.48921 11.1428 9.71655 11.1428H19.0769L17.1111 9.17703Z" fill="#A8A8A8"/>
</svg>
