<svg width="24" height="24" viewBox="0 0 24 24" fill="none" xmlns="http://www.w3.org/2000/svg">
<path fill-rule="evenodd" clip-rule="evenodd" d="M19.8 10.18C19.49 7.00005 17.61 2.00003 11.8 2.00003C5.99002 2.00003 4.11001 7.00005 3.80002 10.18C2.71252 10.5928 1.9952 11.6369 2.00002 12.8V14.2C2.00002 15.7465 3.25365 17 4.80001 17C6.34642 17 7.60004 15.7464 7.60004 14.2V12.8C7.59498 11.662 6.90404 10.6393 5.85001 10.21C6.05002 8.37002 7.03004 4.00005 11.8 4.00005C16.57 4.00005 17.54 8.37002 17.74 10.21C16.6882 10.6403 16.0007 11.6636 16 12.8V14.2C16.0022 14.7269 16.1524 15.2425 16.4335 15.6881C16.7147 16.1337 17.1154 16.4913 17.59 16.72C17.17 17.51 16.1 18.58 13.47 18.9C12.9443 18.1017 11.9272 17.787 11.0424 18.1489C10.1578 18.5108 9.65279 19.4482 9.83729 20.386C10.0218 21.3239 10.8442 22 11.8 22C12.1704 21.998 12.5329 21.8931 12.8472 21.6971C13.1615 21.5011 13.4152 21.2217 13.58 20.89C17.87 20.4 19.24 18.19 19.67 16.89C20.8333 16.5132 21.6157 15.4228 21.6 14.2V12.8C21.6048 11.6369 20.8875 10.5928 19.8 10.18ZM5.60002 14.2C5.60002 14.6418 5.24185 15 4.80001 15C4.35816 15 4.00004 14.6419 4.00004 14.2V12.8C3.99923 12.6945 4.01933 12.5898 4.05917 12.492C4.09901 12.3942 4.15781 12.3053 4.23217 12.2304C4.30654 12.1554 4.395 12.096 4.49247 12.0554C4.58993 12.0148 4.69446 11.9939 4.80003 11.9939C4.90561 11.9939 5.01014 12.0148 5.1076 12.0554C5.20506 12.096 5.29352 12.1554 5.36789 12.2304C5.44226 12.3053 5.50105 12.3942 5.5409 12.492C5.58074 12.5898 5.60083 12.6945 5.60002 12.8V14.2ZM18 12.8C18 12.3582 18.3582 12 18.8 12C19.2419 12 19.6 12.3582 19.6 12.8V14.2C19.6 14.6418 19.2419 15 18.8 15C18.3582 15 18 14.6419 18 14.2V12.8Z" fill="#A8A8A8"/>
</svg>
