<svg width="24" height="24" viewBox="0 0 24 24" fill="none" xmlns="http://www.w3.org/2000/svg">
<g clip-path="url(#clip0_555_5712)">
<path d="M10.4991 17.1807C7.68479 17.1289 6.72356 17.0822 6.13273 16.9605C5.73299 16.8796 5.38562 16.7001 5.13092 16.4396C4.93407 16.2425 4.77752 15.9417 4.65606 15.5244C4.55188 15.1768 4.5113 14.8875 4.45345 14.181C4.36489 12.5864 4.34378 11.2828 4.45345 9.82612C4.54392 9.02172 4.58779 8.06679 5.18877 7.50968C5.47253 7.24895 5.80263 7.08116 6.1733 7.01179C6.75234 6.90185 9.2193 6.81494 11.7732 6.81494C14.3213 6.81494 16.7937 6.90185 17.3733 7.01179C17.8364 7.0987 18.2707 7.35916 18.5256 7.69502C19.074 8.55755 19.0836 9.63009 19.1392 10.469C19.1623 10.8688 19.1623 13.1386 19.1392 13.5384C19.0526 14.8642 18.983 15.3333 18.7861 15.8197C18.6644 16.1268 18.5605 16.2888 18.3806 16.4684C18.0985 16.7447 17.7389 16.9285 17.3497 16.9953C14.9143 17.1785 12.8463 17.2182 10.4991 17.1807ZM14.2286 11.853C12.8737 11.129 11.5763 10.4575 10.2502 9.76252V13.9205C11.6457 13.1619 13.1169 12.4669 14.2344 11.8473L14.2286 11.853Z" fill="white"/>
</g>
<defs>
<clipPath id="clip0_555_5712">
<rect width="14.7776" height="10.2801" fill="white" transform="translate(4.37891 6.90088)"/>
</clipPath>
</defs>
</svg>
