<svg width="110" height="40" viewBox="0 0 110 40" fill="none" xmlns="http://www.w3.org/2000/svg">
<path d="M40.9022 35.2401H34.7177V15.1603H40.5408L40.9424 17.2486C42.1873 15.5218 44.4764 14.5178 47.0868 14.5178C51.8658 14.5178 54.6368 17.5699 54.6368 22.8308V35.2401H48.4522V24.3167C48.4522 21.7866 47.0466 20.1401 44.9182 20.1401C42.4684 20.1401 40.9022 21.7465 40.9022 24.2364V35.2401Z" fill="white"/>
<path d="M57.3911 28.8949H63.2544C63.3347 30.3005 64.3789 31.1438 66.2664 31.1438C68.194 31.1438 69.0775 30.4611 69.0775 29.4169C69.0775 28.8146 68.7563 28.172 67.2704 27.8507L63.5757 27.0475C59.881 26.2443 58.0738 24.638 58.0738 21.1039C58.0738 16.9274 61.648 14.5178 66.4672 14.5178C71.1257 14.5178 74.3786 17.2486 74.3786 21.3047H68.5153C68.5153 19.9393 67.672 19.0156 66.1861 19.0156C64.7805 19.0156 63.897 19.7385 63.897 20.8228C63.897 21.7465 64.66 22.2686 66.0656 22.5898L69.8004 23.393C73.0935 24.1159 74.9007 25.642 74.9007 28.8547C74.9007 33.1518 71.2461 35.7621 66.0254 35.7621C60.7244 35.7621 57.3911 32.951 57.3911 28.8949Z" fill="white"/>
<path d="M81.1844 12.0279C79.2165 12.0279 77.6503 10.4617 77.6503 8.49387C77.6503 6.52606 79.2165 5 81.1844 5C83.112 5 84.6782 6.52606 84.6782 8.49387C84.6782 10.4617 83.112 12.0279 81.1844 12.0279ZM78.1322 35.2401V15.1603H84.3168V35.2401H78.1322Z" fill="white"/>
<path d="M87.8722 25.16C87.8722 18.8148 92.5306 14.5579 98.9562 14.5579C105.342 14.5579 110 18.8148 110 25.16C110 31.5052 105.342 35.722 98.9562 35.722C92.5306 35.722 87.8722 31.5052 87.8722 25.16ZM94.0969 25.1199C94.0969 28.172 96.0647 30.18 98.9562 30.18C101.807 30.18 103.775 28.172 103.775 25.1199C103.775 22.1079 101.807 20.1 98.9562 20.1C96.0647 20.1 94.0969 22.1079 94.0969 25.1199Z" fill="white"/>
<path d="M0 20.7183C0 11.835 6.52189 5.87535 15.5176 5.87535C24.4571 5.87535 30.979 11.835 30.979 20.7183C30.979 29.6016 24.4571 35.505 15.5176 35.505C6.52189 35.505 0 29.6016 0 20.7183ZM8.7146 20.6621C8.7146 24.935 11.4695 27.7462 15.5176 27.7462C19.5095 27.7462 22.2644 24.935 22.2644 20.6621C22.2644 16.4453 19.5095 13.6342 15.5176 13.6342C11.4695 13.6342 8.7146 16.4453 8.7146 20.6621Z" fill="url(#paint0_linear_2617_13105)"/>
<defs>
<linearGradient id="paint0_linear_2617_13105" x1="15.4895" y1="5.87535" x2="5.8863" y2="59.3464" gradientUnits="userSpaceOnUse">
<stop offset="0.228914" stop-color="#8F40E5"/>
<stop offset="0.765625" stop-color="#2626C9"/>
<stop offset="1" stop-color="#8F40E5"/>
</linearGradient>
</defs>
</svg>
