<svg width="24" height="24" viewBox="0 0 24 24" fill="none" xmlns="http://www.w3.org/2000/svg">
<path d="M21.9199 1.62C21.8185 1.37565 21.6243 1.18147 21.3799 1.08C21.2597 1.02876 21.1306 1.00158 20.9999 1H15.9999C15.7347 1 15.4804 1.10536 15.2928 1.29289C15.1053 1.48043 14.9999 1.73478 14.9999 2C14.9999 2.26522 15.1053 2.51957 15.2928 2.70711C15.4804 2.89464 15.7347 3 15.9999 3H18.5899L12.9999 8.59L9.70994 5.29C9.61698 5.19627 9.50637 5.12188 9.38452 5.07111C9.26266 5.02034 9.13195 4.9942 8.99994 4.9942C8.86793 4.9942 8.73722 5.02034 8.61536 5.07111C8.4935 5.12188 8.3829 5.19627 8.28994 5.29L2.28994 11.29C2.19621 11.383 2.12182 11.4936 2.07105 11.6154C2.02028 11.7373 1.99414 11.868 1.99414 12C1.99414 12.132 2.02028 12.2627 2.07105 12.3846C2.12182 12.5064 2.19621 12.617 2.28994 12.71C2.3829 12.8037 2.4935 12.8781 2.61536 12.9289C2.73722 12.9797 2.86793 13.0058 2.99994 13.0058C3.13195 13.0058 3.26266 12.9797 3.38452 12.9289C3.50637 12.8781 3.61698 12.8037 3.70994 12.71L8.99994 7.41L12.2899 10.71C12.3829 10.8037 12.4935 10.8781 12.6154 10.9289C12.7372 10.9797 12.8679 11.0058 12.9999 11.0058C13.132 11.0058 13.2627 10.9797 13.3845 10.9289C13.5064 10.8781 13.617 10.8037 13.7099 10.71L19.9999 4.41V7C19.9999 7.26522 20.1053 7.51957 20.2928 7.70711C20.4804 7.89464 20.7347 8 20.9999 8C21.2652 8 21.5195 7.89464 21.707 7.70711C21.8946 7.51957 21.9999 7.26522 21.9999 7V2C21.9984 1.86932 21.9712 1.74022 21.9199 1.62Z" fill="#CE9DF3"/>
</svg>
