<svg width="25" height="24" viewBox="0 0 25 24" fill="none" xmlns="http://www.w3.org/2000/svg">
<path d="M12.7977 5.00005C12.7989 4.60008 12.72 4.20391 12.5659 3.83485C12.4117 3.46579 12.1853 3.13128 11.9 2.851C11.6146 2.57072 11.2761 2.35032 10.9043 2.20278C10.5326 2.05524 10.1351 1.98353 9.73518 1.99186C9.33529 2.0002 8.94111 2.08841 8.57582 2.25132C8.21053 2.41422 7.8815 2.64853 7.60808 2.94045C7.33467 3.23238 7.12239 3.57604 6.98373 3.9512C6.84507 4.32637 6.78284 4.72548 6.80068 5.12505C6.21288 5.27619 5.66718 5.5591 5.20491 5.95236C4.74264 6.34562 4.37592 6.83892 4.13253 7.3949C3.88913 7.95087 3.77544 8.55494 3.80007 9.16136C3.8247 9.76778 3.987 10.3606 4.27468 10.8951C3.76886 11.306 3.37111 11.8343 3.11602 12.434C2.86093 13.0337 2.75624 13.6866 2.81105 14.336C2.86585 14.9854 3.0785 15.6116 3.43049 16.1601C3.78248 16.7085 4.26315 17.1627 4.83068 17.4831C4.7606 18.0253 4.80242 18.5761 4.95357 19.1016C5.10472 19.627 5.36198 20.1159 5.70947 20.538C6.05696 20.9601 6.48729 21.3065 6.9739 21.5558C7.46051 21.8051 7.99306 21.952 8.53866 21.9874C9.08426 22.0228 9.63132 21.946 10.1461 21.7617C10.6608 21.5774 11.1323 21.2895 11.5314 20.9158C11.9306 20.5421 12.2489 20.0906 12.4666 19.5891C12.6844 19.0876 12.7971 18.5468 12.7977 18V5.00005Z" stroke="#CE9DF3" stroke-width="2" stroke-linecap="round" stroke-linejoin="round"/>
<path d="M9.79688 13C10.6364 12.7047 11.3696 12.167 11.9035 11.455C12.4375 10.743 12.7484 9.88867 12.7969 9" stroke="#CE9DF3" stroke-width="2" stroke-linecap="round" stroke-linejoin="round"/>
<path d="M6.79688 5.125C6.81665 5.60873 6.9532 6.0805 7.19488 6.5" stroke="#CE9DF3" stroke-width="2" stroke-linecap="round" stroke-linejoin="round"/>
<path d="M4.27344 10.896C4.45638 10.747 4.65214 10.6145 4.85844 10.5" stroke="#CE9DF3" stroke-width="2" stroke-linecap="round" stroke-linejoin="round"/>
<path d="M6.79513 18C6.10595 18.0003 5.42839 17.8226 4.82812 17.484" stroke="#CE9DF3" stroke-width="2" stroke-linecap="round" stroke-linejoin="round"/>
<path d="M12.7969 13H16.7969" stroke="#CE9DF3" stroke-width="2" stroke-linecap="round" stroke-linejoin="round"/>
<path d="M12.7969 18H18.7969C19.3273 18 19.836 18.2107 20.2111 18.5858C20.5862 18.9609 20.7969 19.4696 20.7969 20V21" stroke="#CE9DF3" stroke-width="2" stroke-linecap="round" stroke-linejoin="round"/>
<path d="M12.7969 8H20.7969" stroke="#CE9DF3" stroke-width="2" stroke-linecap="round" stroke-linejoin="round"/>
<path d="M16.7969 8V5C16.7969 4.46957 17.0076 3.96086 17.3827 3.58579C17.7577 3.21071 18.2664 3 18.7969 3" stroke="#CE9DF3" stroke-width="2" stroke-linecap="round" stroke-linejoin="round"/>
<path d="M16.7969 13.5C17.073 13.5 17.2969 13.2761 17.2969 13C17.2969 12.7239 17.073 12.5 16.7969 12.5C16.5207 12.5 16.2969 12.7239 16.2969 13C16.2969 13.2761 16.5207 13.5 16.7969 13.5Z" stroke="#CE9DF3" stroke-width="2" stroke-linecap="round" stroke-linejoin="round"/>
<path d="M18.7969 3.5C19.073 3.5 19.2969 3.27614 19.2969 3C19.2969 2.72386 19.073 2.5 18.7969 2.5C18.5207 2.5 18.2969 2.72386 18.2969 3C18.2969 3.27614 18.5207 3.5 18.7969 3.5Z" stroke="#CE9DF3" stroke-width="2" stroke-linecap="round" stroke-linejoin="round"/>
<path d="M20.7969 21.5C21.073 21.5 21.2969 21.2761 21.2969 21C21.2969 20.7239 21.073 20.5 20.7969 20.5C20.5207 20.5 20.2969 20.7239 20.2969 21C20.2969 21.2761 20.5207 21.5 20.7969 21.5Z" stroke="#CE9DF3" stroke-width="2" stroke-linecap="round" stroke-linejoin="round"/>
<path d="M20.7969 8.5C21.073 8.5 21.2969 8.27614 21.2969 8C21.2969 7.72386 21.073 7.5 20.7969 7.5C20.5207 7.5 20.2969 7.72386 20.2969 8C20.2969 8.27614 20.5207 8.5 20.7969 8.5Z" stroke="#CE9DF3" stroke-width="2" stroke-linecap="round" stroke-linejoin="round"/>
</svg>
