<svg width="20" height="34" viewBox="0 0 20 34" fill="none" xmlns="http://www.w3.org/2000/svg">
<path d="M8.324 33.7754V29.5634H12.086V33.7754H8.324ZM8.324 4.92136V0.691358H12.086V4.92136H8.324ZM10.394 30.7334C8.594 30.7334 6.986 30.4094 5.57 29.7614C4.154 29.1134 2.99 28.1954 2.078 27.0074C1.178 25.8074 0.59 24.3914 0.314 22.7594L4.04 22.1654C4.4 23.7014 5.168 24.9254 6.344 25.8374C7.52 26.7374 8.93 27.1874 10.574 27.1874C12.206 27.1874 13.532 26.7974 14.552 26.0174C15.584 25.2374 16.1 24.2414 16.1 23.0294C16.1 22.1654 15.836 21.4634 15.308 20.9234C14.792 20.3834 13.946 19.9274 12.77 19.5554L6.686 17.6834C3.086 16.5674 1.286 14.4074 1.286 11.2034C1.286 9.69136 1.646 8.37736 2.366 7.26136C3.098 6.14536 4.124 5.28136 5.444 4.66936C6.764 4.05736 8.306 3.75136 10.07 3.75136C11.762 3.77536 13.262 4.08736 14.57 4.68736C15.89 5.28736 16.982 6.15136 17.846 7.27936C18.722 8.40736 19.328 9.76336 19.664 11.3474L15.83 12.0314C15.662 11.1074 15.308 10.2914 14.768 9.58336C14.24 8.87536 13.568 8.32336 12.752 7.92736C11.948 7.53136 11.042 7.32736 10.034 7.31536C9.086 7.29136 8.234 7.44136 7.478 7.76536C6.734 8.07736 6.14 8.52136 5.696 9.09736C5.264 9.66136 5.048 10.3034 5.048 11.0234C5.048 11.8154 5.354 12.4874 5.966 13.0394C6.578 13.5914 7.544 14.0654 8.864 14.4614L13.634 15.8474C15.818 16.4954 17.396 17.3654 18.368 18.4574C19.34 19.5494 19.826 21.0014 19.826 22.8134C19.826 24.3974 19.43 25.7834 18.638 26.9714C17.858 28.1474 16.76 29.0714 15.344 29.7434C13.928 30.4034 12.278 30.7334 10.394 30.7334Z" fill="#DCDCDC"/>
</svg>
