<svg width="25" height="24" viewBox="0 0 25 24" fill="none" xmlns="http://www.w3.org/2000/svg">
<path d="M12.2969 20H12.3069" stroke="#CE9DF3" stroke-width="2" stroke-linecap="round" stroke-linejoin="round"/>
<path d="M8.79688 16.429C9.73152 15.5129 10.9881 14.9998 12.2969 14.9998C13.6056 14.9998 14.8622 15.5129 15.7969 16.429" stroke="#CE9DF3" stroke-width="2" stroke-linecap="round" stroke-linejoin="round"/>
<path d="M5.29688 12.8589C6.7149 11.4689 8.51468 10.5324 10.4669 10.1689" stroke="#CE9DF3" stroke-width="2" stroke-linecap="round" stroke-linejoin="round"/>
<path d="M19.2961 12.8591C18.6939 12.2688 18.0196 11.7571 17.2891 11.3361" stroke="#CE9DF3" stroke-width="2" stroke-linecap="round" stroke-linejoin="round"/>
<path d="M2.29688 8.82C3.53347 7.71408 4.94497 6.82095 6.47388 6.177" stroke="#CE9DF3" stroke-width="2" stroke-linecap="round" stroke-linejoin="round"/>
<path d="M22.2958 8.82003C20.7705 7.45585 18.9823 6.41818 17.041 5.77087C15.0998 5.12355 13.0466 4.88029 11.0078 5.05603" stroke="#CE9DF3" stroke-width="2" stroke-linecap="round" stroke-linejoin="round"/>
<path d="M2.29688 2L22.2969 22" stroke="#CE9DF3" stroke-width="2" stroke-linecap="round" stroke-linejoin="round"/>
</svg>
