<svg width="24" height="24" viewBox="0 0 24 24" fill="none" xmlns="http://www.w3.org/2000/svg">
<path d="M11.689 3.063C12.0712 3.2368 12.4191 3.47798 12.716 3.775L18.684 9.745C18.984 10.045 19.224 10.392 19.395 10.771M11.689 3.063C11.2342 2.85654 10.7404 2.74982 10.241 2.75H7.79297C6.86471 2.75 5.97447 3.11875 5.3181 3.77513C4.66172 4.4315 4.29297 5.32174 4.29297 6.25V17.75C4.29297 18.6783 4.66172 19.5685 5.3181 20.2249C5.97447 20.8813 6.86471 21.25 7.79297 21.25H16.209C17.1372 21.25 18.0275 20.8813 18.6838 20.2249C19.3402 19.5685 19.709 18.6783 19.709 17.75V12.22C19.709 11.715 19.6 11.222 19.395 10.771M11.689 3.063V8.77C11.689 9.30043 11.8997 9.80914 12.2748 10.1842C12.6498 10.5593 13.1585 10.77 13.689 10.77L19.395 10.771" stroke="#CE9DF3" stroke-width="1.5" stroke-linecap="round" stroke-linejoin="round"/>
</svg>
